# Blender v2.81 (sub 16) OBJ File: ''
# www.blender.org
o Gear
v 0.700000 0.000000 -0.200000
v 0.694011 0.091368 -0.200000
v 0.676148 0.181173 -0.200000
v 0.646716 0.267878 -0.200000
v 0.900000 0.000000 -0.200000
v 0.892300 0.117474 -0.200000
v 0.869333 0.232937 -0.200000
v 0.831492 0.344415 -0.200000
v 0.991445 0.130526 -0.200000
v 0.965926 0.258819 -0.200000
v 0.923880 0.382683 -0.200000
v 1.085245 0.179566 -0.200000
v 1.062518 0.284701 -0.200000
v 1.029633 0.387113 -0.200000
v 0.700000 -0.000000 0.200000
v 0.694011 0.091368 0.200000
v 0.676148 0.181173 0.200000
v 0.646716 0.267878 0.200000
v 0.900000 -0.000000 0.200000
v 0.892300 0.117474 0.200000
v 0.869333 0.232937 0.200000
v 0.831492 0.344415 0.200000
v 0.991445 0.130526 0.200000
v 0.965926 0.258819 0.200000
v 0.923880 0.382683 0.200000
v 1.085245 0.179566 0.200000
v 1.062518 0.284701 0.200000
v 1.029633 0.387113 0.200000
v 0.606218 0.350000 -0.200000
v 0.555347 0.426133 -0.200000
v 0.494975 0.494975 -0.200000
v 0.426133 0.555347 -0.200000
v 0.779423 0.450000 -0.200000
v 0.714018 0.547885 -0.200000
v 0.636396 0.636396 -0.200000
v 0.547885 0.714018 -0.200000
v 0.793353 0.608761 -0.200000
v 0.707107 0.707107 -0.200000
v 0.608761 0.793353 -0.200000
v 0.850066 0.698131 -0.200000
v 0.777817 0.777817 -0.200000
v 0.698131 0.850066 -0.200000
v 0.606218 0.350000 0.200000
v 0.555347 0.426133 0.200000
v 0.494975 0.494975 0.200000
v 0.426133 0.555347 0.200000
v 0.779423 0.450000 0.200000
v 0.714018 0.547885 0.200000
v 0.636396 0.636396 0.200000
v 0.547885 0.714018 0.200000
v 0.793353 0.608761 0.200000
v 0.707107 0.707107 0.200000
v 0.608761 0.793353 0.200000
v 0.850066 0.698131 0.200000
v 0.777817 0.777817 0.200000
v 0.698131 0.850066 0.200000
v 0.350000 0.606218 -0.200000
v 0.267878 0.646716 -0.200000
v 0.181173 0.676148 -0.200000
v 0.091368 0.694011 -0.200000
v 0.450000 0.779423 -0.200000
v 0.344415 0.831492 -0.200000
v 0.232937 0.869333 -0.200000
v 0.117474 0.892300 -0.200000
v 0.382683 0.923880 -0.200000
v 0.258819 0.965926 -0.200000
v 0.130526 0.991445 -0.200000
v 0.387113 1.029633 -0.200000
v 0.284701 1.062518 -0.200000
v 0.179566 1.085245 -0.200000
v 0.350000 0.606218 0.200000
v 0.267878 0.646716 0.200000
v 0.181173 0.676148 0.200000
v 0.091368 0.694011 0.200000
v 0.450000 0.779423 0.200000
v 0.344415 0.831492 0.200000
v 0.232937 0.869333 0.200000
v 0.117474 0.892300 0.200000
v 0.382683 0.923880 0.200000
v 0.258819 0.965926 0.200000
v 0.130526 0.991445 0.200000
v 0.387113 1.029633 0.200000
v 0.284701 1.062518 0.200000
v 0.179566 1.085245 0.200000
v 0.000000 0.700000 -0.200000
v -0.091368 0.694011 -0.200000
v -0.181173 0.676148 -0.200000
v -0.267878 0.646716 -0.200000
v 0.000000 0.900000 -0.200000
v -0.117474 0.892300 -0.200000
v -0.232937 0.869333 -0.200000
v -0.344415 0.831492 -0.200000
v -0.130526 0.991445 -0.200000
v -0.258819 0.965926 -0.200000
v -0.382683 0.923880 -0.200000
v -0.179566 1.085245 -0.200000
v -0.284701 1.062518 -0.200000
v -0.387113 1.029633 -0.200000
v 0.000000 0.700000 0.200000
v -0.091368 0.694011 0.200000
v -0.181173 0.676148 0.200000
v -0.267878 0.646716 0.200000
v 0.000000 0.900000 0.200000
v -0.117474 0.892300 0.200000
v -0.232937 0.869333 0.200000
v -0.344415 0.831492 0.200000
v -0.130526 0.991445 0.200000
v -0.258819 0.965926 0.200000
v -0.382683 0.923880 0.200000
v -0.179566 1.085245 0.200000
v -0.284701 1.062518 0.200000
v -0.387113 1.029633 0.200000
v -0.350000 0.606218 -0.200000
v -0.426133 0.555347 -0.200000
v -0.494975 0.494975 -0.200000
v -0.555347 0.426133 -0.200000
v -0.450000 0.779423 -0.200000
v -0.547885 0.714018 -0.200000
v -0.636396 0.636396 -0.200000
v -0.714018 0.547885 -0.200000
v -0.608761 0.793353 -0.200000
v -0.707107 0.707107 -0.200000
v -0.793353 0.608761 -0.200000
v -0.698131 0.850066 -0.200000
v -0.777817 0.777817 -0.200000
v -0.850066 0.698131 -0.200000
v -0.350000 0.606218 0.200000
v -0.426133 0.555347 0.200000
v -0.494975 0.494975 0.200000
v -0.555347 0.426133 0.200000
v -0.450000 0.779423 0.200000
v -0.547885 0.714018 0.200000
v -0.636396 0.636396 0.200000
v -0.714018 0.547885 0.200000
v -0.608761 0.793353 0.200000
v -0.707107 0.707107 0.200000
v -0.793353 0.608761 0.200000
v -0.698131 0.850066 0.200000
v -0.777817 0.777817 0.200000
v -0.850066 0.698131 0.200000
v -0.606218 0.350000 -0.200000
v -0.646716 0.267878 -0.200000
v -0.676148 0.181173 -0.200000
v -0.694011 0.091368 -0.200000
v -0.779423 0.450000 -0.200000
v -0.831492 0.344415 -0.200000
v -0.869333 0.232937 -0.200000
v -0.892300 0.117474 -0.200000
v -0.923880 0.382683 -0.200000
v -0.965926 0.258819 -0.200000
v -0.991445 0.130526 -0.200000
v -1.029633 0.387113 -0.200000
v -1.062518 0.284701 -0.200000
v -1.085245 0.179566 -0.200000
v -0.606218 0.350000 0.200000
v -0.646716 0.267878 0.200000
v -0.676148 0.181173 0.200000
v -0.694011 0.091368 0.200000
v -0.779423 0.450000 0.200000
v -0.831492 0.344415 0.200000
v -0.869333 0.232937 0.200000
v -0.892300 0.117474 0.200000
v -0.923880 0.382683 0.200000
v -0.965926 0.258819 0.200000
v -0.991445 0.130526 0.200000
v -1.029633 0.387113 0.200000
v -1.062518 0.284701 0.200000
v -1.085245 0.179566 0.200000
v -0.700000 0.000000 -0.200000
v -0.694011 -0.091368 -0.200000
v -0.676148 -0.181173 -0.200000
v -0.646716 -0.267878 -0.200000
v -0.900000 0.000000 -0.200000
v -0.892300 -0.117474 -0.200000
v -0.869333 -0.232937 -0.200000
v -0.831492 -0.344415 -0.200000
v -0.991445 -0.130526 -0.200000
v -0.965926 -0.258819 -0.200000
v -0.923880 -0.382683 -0.200000
v -1.085245 -0.179566 -0.200000
v -1.062518 -0.284701 -0.200000
v -1.029633 -0.387113 -0.200000
v -0.700000 -0.000000 0.200000
v -0.694011 -0.091368 0.200000
v -0.676148 -0.181173 0.200000
v -0.646716 -0.267878 0.200000
v -0.900000 -0.000000 0.200000
v -0.892300 -0.117474 0.200000
v -0.869333 -0.232937 0.200000
v -0.831492 -0.344415 0.200000
v -0.991445 -0.130526 0.200000
v -0.965926 -0.258819 0.200000
v -0.923880 -0.382683 0.200000
v -1.085245 -0.179566 0.200000
v -1.062518 -0.284701 0.200000
v -1.029633 -0.387113 0.200000
v -0.606218 -0.350000 -0.200000
v -0.555347 -0.426133 -0.200000
v -0.494975 -0.494975 -0.200000
v -0.426133 -0.555347 -0.200000
v -0.779423 -0.450000 -0.200000
v -0.714018 -0.547885 -0.200000
v -0.636396 -0.636396 -0.200000
v -0.547885 -0.714018 -0.200000
v -0.793353 -0.608761 -0.200000
v -0.707107 -0.707107 -0.200000
v -0.608761 -0.793353 -0.200000
v -0.850066 -0.698131 -0.200000
v -0.777817 -0.777817 -0.200000
v -0.698131 -0.850066 -0.200000
v -0.606218 -0.350000 0.200000
v -0.555347 -0.426133 0.200000
v -0.494975 -0.494975 0.200000
v -0.426133 -0.555347 0.200000
v -0.779423 -0.450000 0.200000
v -0.714018 -0.547885 0.200000
v -0.636396 -0.636396 0.200000
v -0.547885 -0.714018 0.200000
v -0.793353 -0.608761 0.200000
v -0.707107 -0.707107 0.200000
v -0.608761 -0.793353 0.200000
v -0.850066 -0.698131 0.200000
v -0.777817 -0.777817 0.200000
v -0.698131 -0.850066 0.200000
v -0.350000 -0.606218 -0.200000
v -0.267878 -0.646716 -0.200000
v -0.181173 -0.676148 -0.200000
v -0.091368 -0.694011 -0.200000
v -0.450000 -0.779423 -0.200000
v -0.344415 -0.831492 -0.200000
v -0.232937 -0.869333 -0.200000
v -0.117474 -0.892300 -0.200000
v -0.382683 -0.923880 -0.200000
v -0.258819 -0.965926 -0.200000
v -0.130526 -0.991445 -0.200000
v -0.387113 -1.029633 -0.200000
v -0.284701 -1.062518 -0.200000
v -0.179566 -1.085245 -0.200000
v -0.350000 -0.606218 0.200000
v -0.267878 -0.646716 0.200000
v -0.181173 -0.676148 0.200000
v -0.091368 -0.694011 0.200000
v -0.450000 -0.779423 0.200000
v -0.344415 -0.831492 0.200000
v -0.232937 -0.869333 0.200000
v -0.117474 -0.892300 0.200000
v -0.382683 -0.923880 0.200000
v -0.258819 -0.965926 0.200000
v -0.130526 -0.991445 0.200000
v -0.387113 -1.029633 0.200000
v -0.284701 -1.062518 0.200000
v -0.179566 -1.085245 0.200000
v -0.000000 -0.700000 -0.200000
v 0.091368 -0.694011 -0.200000
v 0.181173 -0.676148 -0.200000
v 0.267878 -0.646716 -0.200000
v -0.000000 -0.900000 -0.200000
v 0.117474 -0.892300 -0.200000
v 0.232937 -0.869333 -0.200000
v 0.344415 -0.831492 -0.200000
v 0.130526 -0.991445 -0.200000
v 0.258819 -0.965926 -0.200000
v 0.382683 -0.923880 -0.200000
v 0.179566 -1.085245 -0.200000
v 0.284701 -1.062518 -0.200000
v 0.387113 -1.029633 -0.200000
v -0.000000 -0.700000 0.200000
v 0.091368 -0.694011 0.200000
v 0.181173 -0.676148 0.200000
v 0.267878 -0.646716 0.200000
v -0.000000 -0.900000 0.200000
v 0.117474 -0.892300 0.200000
v 0.232937 -0.869333 0.200000
v 0.344415 -0.831492 0.200000
v 0.130526 -0.991445 0.200000
v 0.258819 -0.965926 0.200000
v 0.382683 -0.923880 0.200000
v 0.179566 -1.085245 0.200000
v 0.284701 -1.062518 0.200000
v 0.387113 -1.029633 0.200000
v 0.350000 -0.606218 -0.200000
v 0.426133 -0.555347 -0.200000
v 0.494975 -0.494975 -0.200000
v 0.555347 -0.426133 -0.200000
v 0.450000 -0.779423 -0.200000
v 0.547885 -0.714018 -0.200000
v 0.636396 -0.636396 -0.200000
v 0.714018 -0.547885 -0.200000
v 0.608761 -0.793353 -0.200000
v 0.707107 -0.707107 -0.200000
v 0.793353 -0.608761 -0.200000
v 0.698131 -0.850066 -0.200000
v 0.777817 -0.777817 -0.200000
v 0.850066 -0.698131 -0.200000
v 0.350000 -0.606218 0.200000
v 0.426133 -0.555347 0.200000
v 0.494975 -0.494975 0.200000
v 0.555347 -0.426133 0.200000
v 0.450000 -0.779423 0.200000
v 0.547885 -0.714018 0.200000
v 0.636396 -0.636396 0.200000
v 0.714018 -0.547885 0.200000
v 0.608761 -0.793353 0.200000
v 0.707107 -0.707107 0.200000
v 0.793353 -0.608761 0.200000
v 0.698131 -0.850066 0.200000
v 0.777817 -0.777817 0.200000
v 0.850066 -0.698131 0.200000
v 0.606218 -0.350000 -0.200000
v 0.646716 -0.267878 -0.200000
v 0.676148 -0.181173 -0.200000
v 0.694011 -0.091368 -0.200000
v 0.779423 -0.450000 -0.200000
v 0.831492 -0.344415 -0.200000
v 0.869333 -0.232937 -0.200000
v 0.892300 -0.117474 -0.200000
v 0.923880 -0.382683 -0.200000
v 0.965926 -0.258819 -0.200000
v 0.991445 -0.130526 -0.200000
v 1.029633 -0.387113 -0.200000
v 1.062518 -0.284701 -0.200000
v 1.085245 -0.179566 -0.200000
v 0.606218 -0.350000 0.200000
v 0.646716 -0.267878 0.200000
v 0.676148 -0.181173 0.200000
v 0.694011 -0.091368 0.200000
v 0.779423 -0.450000 0.200000
v 0.831492 -0.344415 0.200000
v 0.869333 -0.232937 0.200000
v 0.892300 -0.117474 0.200000
v 0.923880 -0.382683 0.200000
v 0.965926 -0.258819 0.200000
v 0.991445 -0.130526 0.200000
v 1.029633 -0.387113 0.200000
v 1.062518 -0.284701 0.200000
v 1.085245 -0.179566 0.200000
vn -0.0000 0.0000 -1.0000
vn -0.0000 0.0000 1.0000
vn 0.9979 0.0654 0.0000
vn 0.1305 -0.9914 -0.0000
vn 0.4633 -0.8862 -0.0000
vn 0.9774 0.2113 0.0000
vn 0.9521 0.3057 0.0000
vn -0.0419 0.9991 0.0000
vn -0.3827 0.9239 0.0000
vn 0.8315 0.5556 0.0000
vn 0.6088 -0.7934 0.0000
vn 0.8443 -0.5358 0.0000
vn 0.7408 0.6717 0.0000
vn 0.6717 0.7408 0.0000
vn -0.5358 0.8443 0.0000
vn -0.7934 0.6088 0.0000
vn 0.8969 0.4423 0.0000
vn 0.4423 0.8969 0.0000
vn 0.9239 -0.3827 0.0000
vn 0.9991 -0.0419 0.0000
vn 0.3057 0.9521 0.0000
vn 0.2113 0.9774 0.0000
vn -0.8862 0.4633 0.0000
vn -0.9914 0.1305 0.0000
vn 0.5556 0.8315 0.0000
vn -0.0654 0.9979 0.0000
vn 0.9914 0.1305 0.0000
vn 0.8862 0.4633 0.0000
vn -0.2113 0.9774 0.0000
vn -0.3057 0.9521 0.0000
vn -0.9991 -0.0419 0.0000
vn -0.9239 -0.3827 0.0000
vn 0.0654 0.9979 0.0000
vn -0.5556 0.8315 0.0000
vn 0.7934 0.6088 0.0000
vn 0.5358 0.8443 0.0000
vn -0.6717 0.7408 0.0000
vn -0.7408 0.6717 0.0000
vn -0.8443 -0.5358 0.0000
vn -0.6088 -0.7934 0.0000
vn -0.4423 0.8969 0.0000
vn -0.8969 0.4423 0.0000
vn 0.3827 0.9239 0.0000
vn 0.0419 0.9991 0.0000
vn -0.9521 0.3057 0.0000
vn -0.9774 0.2113 0.0000
vn -0.4633 -0.8862 -0.0000
vn -0.1305 -0.9914 -0.0000
vn -0.8315 0.5556 0.0000
vn -0.9979 -0.0654 -0.0000
vn -0.1305 0.9914 0.0000
vn -0.4633 0.8862 0.0000
vn -0.9774 -0.2113 -0.0000
vn -0.9521 -0.3057 0.0000
vn 0.0419 -0.9991 0.0000
vn 0.3827 -0.9239 0.0000
vn -0.9979 0.0654 0.0000
vn -0.8315 -0.5556 0.0000
vn -0.6088 0.7934 0.0000
vn -0.8443 0.5358 0.0000
vn -0.7408 -0.6717 0.0000
vn -0.6717 -0.7408 0.0000
vn 0.5358 -0.8443 0.0000
vn 0.7934 -0.6088 0.0000
vn -0.8969 -0.4423 0.0000
vn -0.4423 -0.8969 0.0000
vn -0.9239 0.3827 0.0000
vn -0.9991 0.0419 0.0000
vn -0.3057 -0.9521 0.0000
vn -0.2113 -0.9774 0.0000
vn 0.8862 -0.4633 0.0000
vn 0.9914 -0.1305 0.0000
vn -0.5556 -0.8315 0.0000
vn 0.0654 -0.9979 0.0000
vn -0.9914 -0.1305 0.0000
vn -0.8862 -0.4633 0.0000
vn 0.2113 -0.9774 0.0000
vn 0.3057 -0.9521 0.0000
vn 0.9991 0.0419 0.0000
vn 0.9239 0.3827 0.0000
vn -0.0654 -0.9979 0.0000
vn 0.5556 -0.8315 0.0000
vn -0.7934 -0.6088 0.0000
vn -0.5358 -0.8443 0.0000
vn 0.6717 -0.7408 0.0000
vn 0.7408 -0.6717 0.0000
vn 0.8443 0.5358 0.0000
vn 0.6088 0.7934 0.0000
vn 0.4423 -0.8969 0.0000
vn 0.8969 -0.4423 0.0000
vn -0.3827 -0.9239 0.0000
vn -0.0419 -0.9991 0.0000
vn 0.9521 -0.3057 0.0000
vn 0.9774 -0.2113 -0.0000
vn 0.4633 0.8862 0.0000
vn 0.1305 0.9914 0.0000
vn 0.8315 -0.5556 0.0000
vn 0.9979 -0.0654 -0.0000
s off
f 5//1 1//1 2//1 6//1
f 6//1 2//1 3//1 7//1
f 7//1 3//1 4//1 8//1
f 9//1 6//1 7//1 10//1
f 10//1 7//1 8//1 11//1
f 12//1 9//1 10//1 13//1
f 13//1 10//1 11//1 14//1
f 15//2 19//2 20//2 16//2
f 16//2 20//2 21//2 17//2
f 17//2 21//2 22//2 18//2
f 20//2 23//2 24//2 21//2
f 21//2 24//2 25//2 22//2
f 23//2 26//2 27//2 24//2
f 24//2 27//2 28//2 25//2
f 19//3 5//3 6//3 20//3
f 20//4 6//4 9//4 23//4
f 23//5 9//5 12//5 26//5
f 26//6 12//6 13//6 27//6
f 27//7 13//7 14//7 28//7
f 28//8 14//8 11//8 25//8
f 25//9 11//9 8//9 22//9
f 33//1 29//1 30//1 34//1
f 34//1 30//1 31//1 35//1
f 35//1 31//1 32//1 36//1
f 37//1 34//1 35//1 38//1
f 38//1 35//1 36//1 39//1
f 40//1 37//1 38//1 41//1
f 41//1 38//1 39//1 42//1
f 43//2 47//2 48//2 44//2
f 44//2 48//2 49//2 45//2
f 45//2 49//2 50//2 46//2
f 48//2 51//2 52//2 49//2
f 49//2 52//2 53//2 50//2
f 51//2 54//2 55//2 52//2
f 52//2 55//2 56//2 53//2
f 47//10 33//10 34//10 48//10
f 48//11 34//11 37//11 51//11
f 51//12 37//12 40//12 54//12
f 54//13 40//13 41//13 55//13
f 55//14 41//14 42//14 56//14
f 56//15 42//15 39//15 53//15
f 53//16 39//16 36//16 50//16
f 4//1 29//1 33//1 8//1
f 8//17 33//17 47//17 22//17
f 22//2 47//2 43//2 18//2
f 61//1 57//1 58//1 62//1
f 62//1 58//1 59//1 63//1
f 63//1 59//1 60//1 64//1
f 65//1 62//1 63//1 66//1
f 66//1 63//1 64//1 67//1
f 68//1 65//1 66//1 69//1
f 69//1 66//1 67//1 70//1
f 71//2 75//2 76//2 72//2
f 72//2 76//2 77//2 73//2
f 73//2 77//2 78//2 74//2
f 76//2 79//2 80//2 77//2
f 77//2 80//2 81//2 78//2
f 79//2 82//2 83//2 80//2
f 80//2 83//2 84//2 81//2
f 75//18 61//18 62//18 76//18
f 76//19 62//19 65//19 79//19
f 79//20 65//20 68//20 82//20
f 82//21 68//21 69//21 83//21
f 83//22 69//22 70//22 84//22
f 84//23 70//23 67//23 81//23
f 81//24 67//24 64//24 78//24
f 32//1 57//1 61//1 36//1
f 36//25 61//25 75//25 50//25
f 50//2 75//2 71//2 46//2
f 89//1 85//1 86//1 90//1
f 90//1 86//1 87//1 91//1
f 91//1 87//1 88//1 92//1
f 93//1 90//1 91//1 94//1
f 94//1 91//1 92//1 95//1
f 96//1 93//1 94//1 97//1
f 97//1 94//1 95//1 98//1
f 99//2 103//2 104//2 100//2
f 100//2 104//2 105//2 101//2
f 101//2 105//2 106//2 102//2
f 104//2 107//2 108//2 105//2
f 105//2 108//2 109//2 106//2
f 107//2 110//2 111//2 108//2
f 108//2 111//2 112//2 109//2
f 103//26 89//26 90//26 104//26
f 104//27 90//27 93//27 107//27
f 107//28 93//28 96//28 110//28
f 110//29 96//29 97//29 111//29
f 111//30 97//30 98//30 112//30
f 112//31 98//31 95//31 109//31
f 109//32 95//32 92//32 106//32
f 60//1 85//1 89//1 64//1
f 64//33 89//33 103//33 78//33
f 78//2 103//2 99//2 74//2
f 117//1 113//1 114//1 118//1
f 118//1 114//1 115//1 119//1
f 119//1 115//1 116//1 120//1
f 121//1 118//1 119//1 122//1
f 122//1 119//1 120//1 123//1
f 124//1 121//1 122//1 125//1
f 125//1 122//1 123//1 126//1
f 127//2 131//2 132//2 128//2
f 128//2 132//2 133//2 129//2
f 129//2 133//2 134//2 130//2
f 132//2 135//2 136//2 133//2
f 133//2 136//2 137//2 134//2
f 135//2 138//2 139//2 136//2
f 136//2 139//2 140//2 137//2
f 131//34 117//34 118//34 132//34
f 132//35 118//35 121//35 135//35
f 135//36 121//36 124//36 138//36
f 138//37 124//37 125//37 139//37
f 139//38 125//38 126//38 140//38
f 140//39 126//39 123//39 137//39
f 137//40 123//40 120//40 134//40
f 88//1 113//1 117//1 92//1
f 92//41 117//41 131//41 106//41
f 106//2 131//2 127//2 102//2
f 145//1 141//1 142//1 146//1
f 146//1 142//1 143//1 147//1
f 147//1 143//1 144//1 148//1
f 149//1 146//1 147//1 150//1
f 150//1 147//1 148//1 151//1
f 152//1 149//1 150//1 153//1
f 153//1 150//1 151//1 154//1
f 155//2 159//2 160//2 156//2
f 156//2 160//2 161//2 157//2
f 157//2 161//2 162//2 158//2
f 160//2 163//2 164//2 161//2
f 161//2 164//2 165//2 162//2
f 163//2 166//2 167//2 164//2
f 164//2 167//2 168//2 165//2
f 159//42 145//42 146//42 160//42
f 160//43 146//43 149//43 163//43
f 163//44 149//44 152//44 166//44
f 166//45 152//45 153//45 167//45
f 167//46 153//46 154//46 168//46
f 168//47 154//47 151//47 165//47
f 165//48 151//48 148//48 162//48
f 116//1 141//1 145//1 120//1
f 120//49 145//49 159//49 134//49
f 134//2 159//2 155//2 130//2
f 173//1 169//1 170//1 174//1
f 174//1 170//1 171//1 175//1
f 175//1 171//1 172//1 176//1
f 177//1 174//1 175//1 178//1
f 178//1 175//1 176//1 179//1
f 180//1 177//1 178//1 181//1
f 181//1 178//1 179//1 182//1
f 183//2 187//2 188//2 184//2
f 184//2 188//2 189//2 185//2
f 185//2 189//2 190//2 186//2
f 188//2 191//2 192//2 189//2
f 189//2 192//2 193//2 190//2
f 191//2 194//2 195//2 192//2
f 192//2 195//2 196//2 193//2
f 187//50 173//50 174//50 188//50
f 188//51 174//51 177//51 191//51
f 191//52 177//52 180//52 194//52
f 194//53 180//53 181//53 195//53
f 195//54 181//54 182//54 196//54
f 196//55 182//55 179//55 193//55
f 193//56 179//56 176//56 190//56
f 144//1 169//1 173//1 148//1
f 148//57 173//57 187//57 162//57
f 162//2 187//2 183//2 158//2
f 201//1 197//1 198//1 202//1
f 202//1 198//1 199//1 203//1
f 203//1 199//1 200//1 204//1
f 205//1 202//1 203//1 206//1
f 206//1 203//1 204//1 207//1
f 208//1 205//1 206//1 209//1
f 209//1 206//1 207//1 210//1
f 211//2 215//2 216//2 212//2
f 212//2 216//2 217//2 213//2
f 213//2 217//2 218//2 214//2
f 216//2 219//2 220//2 217//2
f 217//2 220//2 221//2 218//2
f 219//2 222//2 223//2 220//2
f 220//2 223//2 224//2 221//2
f 215//58 201//58 202//58 216//58
f 216//59 202//59 205//59 219//59
f 219//60 205//60 208//60 222//60
f 222//61 208//61 209//61 223//61
f 223//62 209//62 210//62 224//62
f 224//63 210//63 207//63 221//63
f 221//64 207//64 204//64 218//64
f 172//1 197//1 201//1 176//1
f 176//65 201//65 215//65 190//65
f 190//2 215//2 211//2 186//2
f 229//1 225//1 226//1 230//1
f 230//1 226//1 227//1 231//1
f 231//1 227//1 228//1 232//1
f 233//1 230//1 231//1 234//1
f 234//1 231//1 232//1 235//1
f 236//1 233//1 234//1 237//1
f 237//1 234//1 235//1 238//1
f 239//2 243//2 244//2 240//2
f 240//2 244//2 245//2 241//2
f 241//2 245//2 246//2 242//2
f 244//2 247//2 248//2 245//2
f 245//2 248//2 249//2 246//2
f 247//2 250//2 251//2 248//2
f 248//2 251//2 252//2 249//2
f 243//66 229//66 230//66 244//66
f 244//67 230//67 233//67 247//67
f 247//68 233//68 236//68 250//68
f 250//69 236//69 237//69 251//69
f 251//70 237//70 238//70 252//70
f 252//71 238//71 235//71 249//71
f 249//72 235//72 232//72 246//72
f 200//1 225//1 229//1 204//1
f 204//73 229//73 243//73 218//73
f 218//2 243//2 239//2 214//2
f 257//1 253//1 254//1 258//1
f 258//1 254//1 255//1 259//1
f 259//1 255//1 256//1 260//1
f 261//1 258//1 259//1 262//1
f 262//1 259//1 260//1 263//1
f 264//1 261//1 262//1 265//1
f 265//1 262//1 263//1 266//1
f 267//2 271//2 272//2 268//2
f 268//2 272//2 273//2 269//2
f 269//2 273//2 274//2 270//2
f 272//2 275//2 276//2 273//2
f 273//2 276//2 277//2 274//2
f 275//2 278//2 279//2 276//2
f 276//2 279//2 280//2 277//2
f 271//74 257//74 258//74 272//74
f 272//75 258//75 261//75 275//75
f 275//76 261//76 264//76 278//76
f 278//77 264//77 265//77 279//77
f 279//78 265//78 266//78 280//78
f 280//79 266//79 263//79 277//79
f 277//80 263//80 260//80 274//80
f 228//1 253//1 257//1 232//1
f 232//81 257//81 271//81 246//81
f 246//2 271//2 267//2 242//2
f 285//1 281//1 282//1 286//1
f 286//1 282//1 283//1 287//1
f 287//1 283//1 284//1 288//1
f 289//1 286//1 287//1 290//1
f 290//1 287//1 288//1 291//1
f 292//1 289//1 290//1 293//1
f 293//1 290//1 291//1 294//1
f 295//2 299//2 300//2 296//2
f 296//2 300//2 301//2 297//2
f 297//2 301//2 302//2 298//2
f 300//2 303//2 304//2 301//2
f 301//2 304//2 305//2 302//2
f 303//2 306//2 307//2 304//2
f 304//2 307//2 308//2 305//2
f 299//82 285//82 286//82 300//82
f 300//83 286//83 289//83 303//83
f 303//84 289//84 292//84 306//84
f 306//85 292//85 293//85 307//85
f 307//86 293//86 294//86 308//86
f 308//87 294//87 291//87 305//87
f 305//88 291//88 288//88 302//88
f 256//1 281//1 285//1 260//1
f 260//89 285//89 299//89 274//89
f 274//2 299//2 295//2 270//2
f 313//1 309//1 310//1 314//1
f 314//1 310//1 311//1 315//1
f 315//1 311//1 312//1 316//1
f 317//1 314//1 315//1 318//1
f 318//1 315//1 316//1 319//1
f 320//1 317//1 318//1 321//1
f 321//1 318//1 319//1 322//1
f 323//2 327//2 328//2 324//2
f 324//2 328//2 329//2 325//2
f 325//2 329//2 330//2 326//2
f 328//2 331//2 332//2 329//2
f 329//2 332//2 333//2 330//2
f 331//2 334//2 335//2 332//2
f 332//2 335//2 336//2 333//2
f 327//90 313//90 314//90 328//90
f 328//91 314//91 317//91 331//91
f 331//92 317//92 320//92 334//92
f 334//93 320//93 321//93 335//93
f 335//94 321//94 322//94 336//94
f 336//95 322//95 319//95 333//95
f 333//96 319//96 316//96 330//96
f 284//1 309//1 313//1 288//1
f 288//97 313//97 327//97 302//97
f 302//2 327//2 323//2 298//2
f 312//1 1//1 5//1 316//1
f 316//98 5//98 19//98 330//98
f 330//2 19//2 15//2 326//2
